<svg width="1074" height="270" viewBox="0 0 1074 270" fill="none" xmlns="http://www.w3.org/2000/svg">
<path d="M70.6094 168C60.876 168 53.3427 165.2 48.0094 159.6C42.8094 154 40.2094 146.067 40.2094 135.8V84.6H25.6094V69H40.2094V40.2H60.6094V69H84.2094V84.6H60.6094V134.4C60.6094 140.8 61.8094 145.333 64.2094 148C66.7427 150.667 71.276 152 77.8094 152C81.676 152 85.5427 151.133 89.4094 149.4V165.4C84.3427 167.133 78.076 168 70.6094 168ZM139.884 168C128.284 168 118.951 165.067 111.884 159.2C104.951 153.2 101.484 145.133 101.484 135C101.484 124.333 104.818 116.133 111.484 110.4C118.284 104.533 127.884 101.6 140.284 101.6C153.484 101.6 164.684 104.267 173.884 109.6V104.6C173.884 97 171.551 91.4 166.884 87.8C162.351 84.0667 155.151 82.2 145.284 82.2C139.418 82.2 133.684 82.8 128.084 84C122.618 85.0667 117.684 86.6 113.284 88.6V72.2C117.284 70.3333 122.484 68.8667 128.884 67.8C135.284 66.6 141.484 66 147.484 66C163.351 66 175.084 69.5333 182.684 76.6C190.418 83.5333 194.284 93.2 194.284 105.6V165H175.284V154.2C171.151 158.733 166.218 162.2 160.484 164.6C154.884 166.867 148.018 168 139.884 168ZM144.884 152.6C151.284 152.6 157.084 151.333 162.284 148.8C167.484 146.267 171.351 142.733 173.884 138.2V125.2C165.218 119.6 155.551 116.8 144.884 116.8C137.151 116.8 131.351 118.333 127.484 121.4C123.751 124.333 121.884 128.867 121.884 135C121.884 146.733 129.551 152.6 144.884 152.6ZM251.822 168C245.155 168 238.089 167.133 230.622 165.4C223.155 163.8 217.289 161.6 213.022 158.8V141.6C218.222 144.667 224.222 147.2 231.022 149.2C237.822 151.067 244.422 152 250.822 152C258.022 152 263.289 151.133 266.622 149.4C269.955 147.667 271.622 144.867 271.622 141C271.622 138.067 270.822 135.733 269.222 134C267.755 132.133 265.155 130.467 261.422 129C257.822 127.533 252.355 125.8 245.022 123.8C237.155 121.533 230.889 119.267 226.222 117C221.689 114.6 218.222 111.6 215.822 108C213.555 104.4 212.422 99.7333 212.422 94C212.422 84.8 216.022 77.8667 223.222 73.2C230.555 68.4 240.355 66 252.622 66C259.022 66 265.289 66.6 271.422 67.8C277.555 69 282.489 70.6667 286.222 72.8V89.6C282.355 87.3333 277.555 85.5333 271.822 84.2C266.222 82.8667 260.489 82.2 254.622 82.2C247.555 82.2 242.155 83.0667 238.422 84.8C234.689 86.5333 232.822 89.6 232.822 94C232.822 96.8 233.622 99.0667 235.222 100.8C236.822 102.533 239.355 104.067 242.822 105.4C246.422 106.6 252.089 108.2 259.822 110.2C271.955 113.533 280.355 117.467 285.022 122C289.822 126.533 292.222 132.8 292.222 140.8C292.222 149.067 288.822 155.667 282.022 160.6C275.222 165.533 265.155 168 251.822 168ZM314.273 17.2H334.473V165H314.273V17.2ZM334.673 116.4L378.873 69H403.473L359.073 116.4L408.073 165H383.473L334.673 116.4ZM487.741 168C479.074 168 471.541 166.667 465.141 164C458.874 161.2 453.074 156.867 447.741 151V165H428.141V17.2H448.341V81.8C452.741 76.6 458.407 72.6667 465.341 70C472.274 67.3333 479.741 66 487.741 66C497.341 66 505.941 68.2 513.541 72.6C521.274 76.8667 527.274 82.8667 531.541 90.6C535.941 98.3333 538.141 107.2 538.141 117.2C538.141 127.333 535.941 136.267 531.541 144C527.274 151.6 521.274 157.533 513.541 161.8C505.941 165.933 497.341 168 487.741 168ZM483.141 152C489.674 152 495.541 150.6 500.741 147.8C506.074 144.867 510.207 140.733 513.141 135.4C516.207 130.067 517.741 124 517.741 117.2C517.741 110.4 516.207 104.333 513.141 99C510.207 93.6667 506.074 89.5333 500.741 86.6C495.541 83.6667 489.674 82.2 483.141 82.2C475.007 82.2 467.741 84.4 461.341 88.8C454.941 93.2 450.607 99.0667 448.341 106.4V128C450.874 135.333 455.207 141.2 461.341 145.6C467.607 149.867 474.874 152 483.141 152ZM571.972 50.2C568.639 50.2 565.839 49.0667 563.572 46.8C561.305 44.5333 560.172 41.7333 560.172 38.4C560.172 35.0667 561.305 32.2667 563.572 30C565.839 27.7333 568.639 26.6 571.972 26.6C575.439 26.6 578.305 27.7333 580.572 30C582.972 32.2667 584.172 35.0667 584.172 38.4C584.172 41.7333 582.972 44.5333 580.572 46.8C578.305 49.0667 575.439 50.2 571.972 50.2ZM561.772 69H582.372V165H561.772V69ZM610.172 69H629.772V82.8C634.305 77.0667 639.839 72.8667 646.372 70.2C653.039 67.4 659.972 66 667.172 66C679.972 66 689.505 69.4 695.772 76.2C702.039 83 705.172 92.1333 705.172 103.6V165H684.972V105.6C684.972 90 677.505 82.2 662.572 82.2C656.172 82.2 650.172 83.7333 644.572 86.8C639.105 89.7333 634.372 94.2667 630.372 100.4V165H610.172V69ZM780.294 211C773.76 211 767.36 210.467 761.094 209.4C754.96 208.333 749.76 206.8 745.494 204.8V188.2C755.494 192.733 767.094 195 780.294 195C792.694 195 801.694 192.267 807.294 186.8C813.027 181.467 815.894 173.333 815.894 162.4V152.2C807.094 162.733 794.16 168 777.094 168C767.36 168 758.627 165.867 750.894 161.6C743.16 157.333 737.094 151.333 732.694 143.6C728.294 135.867 726.094 127 726.094 117C726.094 106.867 728.227 98 732.494 90.4C736.894 82.6667 742.894 76.6667 750.494 72.4C758.227 68.1333 766.894 66 776.494 66C785.427 66 792.96 67.3333 799.094 70C805.36 72.5333 811.16 76.8 816.494 82.8V69H836.094V160.2C836.094 176.6 831.494 189.133 822.294 197.8C813.227 206.6 799.227 211 780.294 211ZM781.094 152C789.36 152 796.627 149.8 802.894 145.4C809.294 141 813.627 135.133 815.894 127.8V106.2C813.36 98.7333 808.96 92.8667 802.694 88.6C796.56 84.3333 789.36 82.2 781.094 82.2C774.56 82.2 768.627 83.6667 763.294 86.6C758.094 89.4 753.96 93.4667 750.894 98.8C747.96 104.133 746.494 110.2 746.494 117C746.494 123.933 747.96 130.067 750.894 135.4C753.96 140.6 758.094 144.667 763.294 147.6C768.627 150.533 774.56 152 781.094 152ZM907.647 168C896.847 168 887.314 166 879.047 162C870.914 157.867 864.514 152 859.847 144.4C855.314 136.667 853.047 127.6 853.047 117.2C853.047 106.933 855.314 97.9333 859.847 90.2C864.38 82.4667 870.78 76.5333 879.047 72.4C887.314 68.1333 896.847 66 907.647 66C918.447 66 927.98 68.1333 936.247 72.4C944.514 76.5333 950.914 82.4667 955.447 90.2C960.114 97.9333 962.447 106.933 962.447 117.2C962.447 127.6 960.114 136.667 955.447 144.4C950.914 152 944.514 157.867 936.247 162C927.98 166 918.447 168 907.647 168ZM907.647 152C918.047 152 926.314 148.8 932.447 142.4C938.58 136 941.647 127.6 941.647 117.2C941.647 106.4 938.58 97.8667 932.447 91.6C926.314 85.3333 918.047 82.2 907.647 82.2C897.247 82.2 888.98 85.3333 882.847 91.6C876.714 97.8667 873.647 106.4 873.647 117.2C873.647 127.6 876.714 136 882.847 142.4C888.98 148.8 897.247 152 907.647 152Z" fill="white"/>
<circle cx="572" cy="38" r="15" fill="#ACDDFF"/>
<g filter="url(#filter0_d_17_58)">
<path d="M834.263 246.25C830.663 246.25 828.113 245.35 826.613 243.55C825.113 241.65 824.363 239.25 824.363 236.35C824.363 233.45 824.963 230.15 826.163 226.45C827.463 222.65 829.063 218.9 830.963 215.2C833.763 209.8 836.813 204 840.113 197.8C843.513 191.6 847.513 185.25 852.113 178.75C853.613 176.65 855.413 174.15 857.513 171.25C859.713 168.25 862.163 165.3 864.863 162.4C867.663 159.5 870.663 157.1 873.863 155.2C877.063 153.2 880.363 152.2 883.763 152.2C886.563 152.2 888.513 152.8 889.613 154C890.813 155.2 891.413 156.8 891.413 158.8C891.413 160.7 890.963 162.9 890.063 165.4C889.163 167.9 887.963 170.5 886.463 173.2C884.263 177.2 881.213 181.55 877.313 186.25C873.513 190.85 869.213 195.45 864.413 200.05C859.613 204.55 854.663 208.65 849.563 212.35C844.463 215.95 839.563 218.7 834.863 220.6C833.563 223.5 832.513 226.3 831.713 229C831.013 231.7 830.663 234 830.663 235.9C830.663 239.2 831.963 240.85 834.563 240.85C837.963 240.85 841.163 239.65 844.163 237.25C847.163 234.75 849.763 231.65 851.963 227.95C854.263 224.15 855.913 220.4 856.913 216.7C856.613 216.1 856.463 215.5 856.463 214.9C856.463 213.7 856.913 212.65 857.813 211.75C858.813 210.85 859.813 210.4 860.813 210.4C861.713 210.4 862.463 210.8 863.063 211.6C863.763 212.4 864.013 213.8 863.813 215.8C864.413 216.2 864.913 216.4 865.313 216.4C865.613 216.5 865.913 216.6 866.213 216.7C866.513 216.7 866.813 216.7 867.113 216.7C869.413 216.7 871.613 216 873.713 214.6C875.913 213.2 877.413 212.15 878.213 211.45C879.313 210.45 880.313 209.95 881.213 209.95C882.213 209.95 882.713 210.5 882.713 211.6C882.713 212.3 882.463 213.1 881.963 214C881.563 214.8 880.813 215.7 879.713 216.7C876.013 220.1 871.313 221.8 865.613 221.8C864.813 221.8 864.063 221.75 863.363 221.65C862.763 221.45 862.163 221.25 861.563 221.05C860.163 224.95 858.113 228.85 855.413 232.75C852.813 236.65 849.713 239.9 846.113 242.5C842.513 245 838.563 246.25 834.263 246.25ZM854.363 186.25C852.563 188.75 850.663 191.6 848.663 194.8C846.763 198 844.913 201.25 843.113 204.55C841.313 207.75 839.763 210.65 838.463 213.25C842.563 210.85 846.713 207.95 850.913 204.55C855.213 201.15 859.313 197.5 863.213 193.6C867.113 189.6 870.663 185.55 873.863 181.45C877.063 177.25 879.713 173.3 881.813 169.6C884.213 165.4 885.413 162.2 885.413 160C885.413 158.3 884.613 157.45 883.013 157.45C880.613 157.45 878.013 158.6 875.213 160.9C872.513 163.1 869.813 165.85 867.113 169.15C864.413 172.35 861.913 175.55 859.613 178.75C857.413 181.85 855.663 184.35 854.363 186.25ZM891.73 246.25C888.63 246.25 885.98 245.3 883.78 243.4C881.68 241.5 880.63 238.2 880.63 233.5C880.63 230.3 881.43 226.55 883.03 222.25C884.73 217.95 886.98 213.8 889.78 209.8C892.58 205.7 895.68 202.35 899.08 199.75C902.48 197.05 905.93 195.7 909.43 195.7C911.73 195.7 913.43 196.55 914.53 198.25C915.73 199.85 916.33 201.8 916.33 204.1C916.33 207.5 915.23 210.8 913.03 214C910.83 217.2 908.03 219.8 904.63 221.8C901.33 223.8 898.03 224.8 894.73 224.8C892.03 224.8 889.98 223.95 888.58 222.25C887.78 224.25 887.13 226.2 886.63 228.1C886.13 230 885.88 231.8 885.88 233.5C885.88 236.4 886.48 238.45 887.68 239.65C888.98 240.75 890.58 241.3 892.48 241.3C894.78 241.3 897.33 240.7 900.13 239.5C903.03 238.3 905.73 236.9 908.23 235.3C910.73 233.6 912.58 232.2 913.78 231.1C915.78 229.4 917.68 227.55 919.48 225.55C921.38 223.45 923.03 221.5 924.43 219.7C924.93 219.1 925.48 218.8 926.08 218.8C926.68 218.8 927.18 219.1 927.58 219.7C928.08 220.2 928.33 220.85 928.33 221.65C928.33 222.35 928.08 223.05 927.58 223.75C925.98 225.75 923.98 228.05 921.58 230.65C919.28 233.15 916.68 235.5 913.78 237.7C912.18 239 910.13 240.3 907.63 241.6C905.13 242.9 902.48 244 899.68 244.9C896.98 245.8 894.33 246.25 891.73 246.25ZM894.43 220C896.43 220 898.58 219.35 900.88 218.05C903.28 216.75 905.38 215.05 907.18 212.95C909.08 210.75 910.33 208.4 910.93 205.9C911.03 205.7 911.08 205.45 911.08 205.15C911.08 204.85 911.08 204.6 911.08 204.4C911.08 202.6 910.43 201.7 909.13 201.7C907.03 201.7 904.83 202.5 902.53 204.1C900.23 205.6 898.03 207.65 895.93 210.25C893.93 212.75 892.13 215.5 890.53 218.5C890.93 218.8 891.33 219.1 891.73 219.4C892.13 219.6 892.53 219.75 892.93 219.85C893.13 219.95 893.38 220 893.68 220C893.98 220 894.23 220 894.43 220ZM934.71 245.5C929.21 245.5 926.46 242.75 926.46 237.25C926.46 234.95 926.96 232.35 927.96 229.45C929.46 225.05 931.71 220.3 934.71 215.2C937.81 210.1 940.96 205.2 944.16 200.5H938.76C937.96 200.5 937.31 200.25 936.81 199.75C936.41 199.15 936.21 198.5 936.21 197.8C936.21 197.2 936.41 196.65 936.81 196.15C937.31 195.55 937.96 195.25 938.76 195.25H947.91C949.01 193.85 950.01 192.5 950.91 191.2C951.81 189.8 952.71 188.45 953.61 187.15C955.01 183.55 956.71 180.1 958.71 176.8C960.81 173.5 963.36 170.85 966.36 168.85C966.86 168.55 967.31 168.4 967.71 168.4C968.51 168.4 969.21 168.8 969.81 169.6C970.41 170.3 970.71 171.1 970.71 172C970.71 172.7 970.46 173.45 969.96 174.25C969.66 174.65 968.71 175.9 967.11 178C965.51 180.1 963.61 182.7 961.41 185.8C959.21 188.8 956.91 191.95 954.51 195.25H968.91C969.81 195.25 970.46 195.55 970.86 196.15C971.26 196.65 971.46 197.2 971.46 197.8C971.46 198.5 971.26 199.15 970.86 199.75C970.46 200.25 969.81 200.5 968.91 200.5H950.91L949.56 202.6C948.66 203.9 947.31 206 945.51 208.9C943.81 211.8 941.96 215 939.96 218.5C938.06 222 936.41 225.4 935.01 228.7C933.71 231.9 933.06 234.55 933.06 236.65C933.06 239.15 934.11 240.4 936.21 240.4C937.91 240.4 940.46 239.6 943.86 238C947.36 236.3 950.81 234 954.21 231.1C956.21 229.4 958.06 227.6 959.76 225.7C961.46 223.8 963.06 222.05 964.56 220.45C964.96 219.95 965.46 219.7 966.06 219.7C966.56 219.7 967.01 220 967.41 220.6C967.91 221.1 968.16 221.75 968.16 222.55C968.16 223.45 967.91 224.2 967.41 224.8C965.91 226.9 963.81 229.25 961.11 231.85C958.51 234.35 956.21 236.35 954.21 237.85C950.41 240.65 946.31 242.75 941.91 244.15C939.21 245.05 936.81 245.5 934.71 245.5ZM967.04 244.75C964.24 244.75 962.14 243.95 960.74 242.35C959.44 240.65 958.79 238.55 958.79 236.05C958.79 233.25 959.59 230 961.19 226.3C962.89 222.5 965.09 218.6 967.79 214.6C970.49 210.6 973.44 206.9 976.64 203.5C979.94 200 983.24 197.2 986.54 195.1C989.84 192.9 992.89 191.8 995.69 191.8C997.59 191.8 999.44 192.1 1001.24 192.7C1003.04 193.2 1004.49 194.25 1005.59 195.85C1006.79 197.45 1007.39 199.8 1007.39 202.9C1007.39 204 1007.09 204.8 1006.49 205.3C1005.89 205.8 1005.34 206.05 1004.84 206.05C1003.74 206.05 1003.19 205.65 1003.19 204.85C1002.69 201.65 1001.64 199.55 1000.04 198.55C998.54 197.55 997.09 197.05 995.69 197.05C993.69 197.05 991.34 198.05 988.64 200.05C985.94 202.05 983.19 204.6 980.39 207.7C977.59 210.8 974.94 214.15 972.44 217.75C970.04 221.25 968.09 224.65 966.59 227.95C965.09 231.15 964.34 233.8 964.34 235.9C964.34 236.9 964.49 237.8 964.79 238.6C965.19 239.4 965.79 239.8 966.59 239.8C968.09 239.8 970.04 239 972.44 237.4C974.84 235.8 977.39 233.75 980.09 231.25C982.89 228.65 985.64 225.95 988.34 223.15C991.04 220.35 993.49 217.7 995.69 215.2C997.89 212.7 999.59 210.7 1000.79 209.2C1001.39 208.3 1002.14 207.85 1003.04 207.85C1003.74 207.85 1004.39 208.1 1004.99 208.6C1005.59 209.1 1005.89 209.75 1005.89 210.55C1005.89 210.95 1005.74 211.4 1005.44 211.9C1004.74 213 1003.89 214.55 1002.89 216.55C1001.99 218.55 1001.04 220.7 1000.04 223C999.14 225.3 998.34 227.45 997.64 229.45C997.04 231.35 996.74 232.8 996.74 233.8C996.74 234.8 997.09 235.3 997.79 235.3C998.29 235.3 998.89 235.05 999.59 234.55C1000.39 234.05 1001.09 233.6 1001.69 233.2C1004.09 231.2 1006.39 229.1 1008.59 226.9C1010.79 224.6 1012.79 222.45 1014.59 220.45C1014.99 219.95 1015.49 219.7 1016.09 219.7C1016.59 219.7 1017.04 220 1017.44 220.6C1017.94 221.1 1018.19 221.75 1018.19 222.55C1018.19 223.45 1017.94 224.2 1017.44 224.8C1015.84 226.9 1013.74 229.25 1011.14 231.85C1008.54 234.35 1006.24 236.35 1004.24 237.85C1002.94 238.75 1001.39 239.65 999.59 240.55C997.89 241.35 996.24 241.75 994.64 241.75C993.44 241.75 992.44 241.4 991.64 240.7C990.84 239.9 990.44 238.55 990.44 236.65C990.44 235.15 990.69 233.45 991.19 231.55C991.69 229.65 992.29 227.7 992.99 225.7C990.19 228.7 987.19 231.65 983.99 234.55C980.79 237.45 977.69 239.9 974.69 241.9C971.79 243.8 969.24 244.75 967.04 244.75Z" fill="#6AF1A8"/>
</g>
<defs>
<filter id="filter0_d_17_58" x="820.363" y="152.2" width="201.827" height="102.05" filterUnits="userSpaceOnUse" color-interpolation-filters="sRGB">
<feFlood flood-opacity="0" result="BackgroundImageFix"/>
<feColorMatrix in="SourceAlpha" type="matrix" values="0 0 0 0 0 0 0 0 0 0 0 0 0 0 0 0 0 0 127 0" result="hardAlpha"/>
<feOffset dy="4"/>
<feGaussianBlur stdDeviation="2"/>
<feComposite in2="hardAlpha" operator="out"/>
<feColorMatrix type="matrix" values="0 0 0 0 0 0 0 0 0 0 0 0 0 0 0 0 0 0 0.54 0"/>
<feBlend mode="normal" in2="BackgroundImageFix" result="effect1_dropShadow_17_58"/>
<feBlend mode="normal" in="SourceGraphic" in2="effect1_dropShadow_17_58" result="shape"/>
</filter>
</defs>
</svg>
