<svg width="992" height="211" viewBox="0 0 992 211" fill="none" xmlns="http://www.w3.org/2000/svg">
<path d="M70.6094 168C60.876 168 53.3427 165.2 48.0094 159.6C42.8094 154 40.2094 146.067 40.2094 135.8V84.6H25.6094V69H40.2094V40.2H60.6094V69H84.2094V84.6H60.6094V134.4C60.6094 140.8 61.8094 145.333 64.2094 148C66.7427 150.667 71.276 152 77.8094 152C81.676 152 85.5427 151.133 89.4094 149.4V165.4C84.3427 167.133 78.076 168 70.6094 168ZM139.884 168C128.284 168 118.951 165.067 111.884 159.2C104.951 153.2 101.484 145.133 101.484 135C101.484 124.333 104.818 116.133 111.484 110.4C118.284 104.533 127.884 101.6 140.284 101.6C153.484 101.6 164.684 104.267 173.884 109.6V104.6C173.884 97 171.551 91.4 166.884 87.8C162.351 84.0667 155.151 82.2 145.284 82.2C139.418 82.2 133.684 82.8 128.084 84C122.618 85.0667 117.684 86.6 113.284 88.6V72.2C117.284 70.3333 122.484 68.8667 128.884 67.8C135.284 66.6 141.484 66 147.484 66C163.351 66 175.084 69.5333 182.684 76.6C190.418 83.5333 194.284 93.2 194.284 105.6V165H175.284V154.2C171.151 158.733 166.218 162.2 160.484 164.6C154.884 166.867 148.018 168 139.884 168ZM144.884 152.6C151.284 152.6 157.084 151.333 162.284 148.8C167.484 146.267 171.351 142.733 173.884 138.2V125.2C165.218 119.6 155.551 116.8 144.884 116.8C137.151 116.8 131.351 118.333 127.484 121.4C123.751 124.333 121.884 128.867 121.884 135C121.884 146.733 129.551 152.6 144.884 152.6ZM251.822 168C245.155 168 238.089 167.133 230.622 165.4C223.155 163.8 217.289 161.6 213.022 158.8V141.6C218.222 144.667 224.222 147.2 231.022 149.2C237.822 151.067 244.422 152 250.822 152C258.022 152 263.289 151.133 266.622 149.4C269.955 147.667 271.622 144.867 271.622 141C271.622 138.067 270.822 135.733 269.222 134C267.755 132.133 265.155 130.467 261.422 129C257.822 127.533 252.355 125.8 245.022 123.8C237.155 121.533 230.889 119.267 226.222 117C221.689 114.6 218.222 111.6 215.822 108C213.555 104.4 212.422 99.7333 212.422 94C212.422 84.8 216.022 77.8667 223.222 73.2C230.555 68.4 240.355 66 252.622 66C259.022 66 265.289 66.6 271.422 67.8C277.555 69 282.489 70.6667 286.222 72.8V89.6C282.355 87.3333 277.555 85.5333 271.822 84.2C266.222 82.8667 260.489 82.2 254.622 82.2C247.555 82.2 242.155 83.0667 238.422 84.8C234.689 86.5333 232.822 89.6 232.822 94C232.822 96.8 233.622 99.0667 235.222 100.8C236.822 102.533 239.355 104.067 242.822 105.4C246.422 106.6 252.089 108.2 259.822 110.2C271.955 113.533 280.355 117.467 285.022 122C289.822 126.533 292.222 132.8 292.222 140.8C292.222 149.067 288.822 155.667 282.022 160.6C275.222 165.533 265.155 168 251.822 168ZM314.273 17.2H334.473V165H314.273V17.2ZM334.673 116.4L378.873 69H403.473L359.073 116.4L408.073 165H383.473L334.673 116.4ZM487.741 168C479.074 168 471.541 166.667 465.141 164C458.874 161.2 453.074 156.867 447.741 151V165H428.141V17.2H448.341V81.8C452.741 76.6 458.407 72.6667 465.341 70C472.274 67.3333 479.741 66 487.741 66C497.341 66 505.941 68.2 513.541 72.6C521.274 76.8667 527.274 82.8667 531.541 90.6C535.941 98.3333 538.141 107.2 538.141 117.2C538.141 127.333 535.941 136.267 531.541 144C527.274 151.6 521.274 157.533 513.541 161.8C505.941 165.933 497.341 168 487.741 168ZM483.141 152C489.674 152 495.541 150.6 500.741 147.8C506.074 144.867 510.207 140.733 513.141 135.4C516.207 130.067 517.741 124 517.741 117.2C517.741 110.4 516.207 104.333 513.141 99C510.207 93.6667 506.074 89.5333 500.741 86.6C495.541 83.6667 489.674 82.2 483.141 82.2C475.007 82.2 467.741 84.4 461.341 88.8C454.941 93.2 450.607 99.0667 448.341 106.4V128C450.874 135.333 455.207 141.2 461.341 145.6C467.607 149.867 474.874 152 483.141 152ZM571.972 50.2C568.639 50.2 565.839 49.0667 563.572 46.8C561.305 44.5333 560.172 41.7333 560.172 38.4C560.172 35.0667 561.305 32.2667 563.572 30C565.839 27.7333 568.639 26.6 571.972 26.6C575.439 26.6 578.305 27.7333 580.572 30C582.972 32.2667 584.172 35.0667 584.172 38.4C584.172 41.7333 582.972 44.5333 580.572 46.8C578.305 49.0667 575.439 50.2 571.972 50.2ZM561.772 69H582.372V165H561.772V69ZM610.172 69H629.772V82.8C634.305 77.0667 639.839 72.8667 646.372 70.2C653.039 67.4 659.972 66 667.172 66C679.972 66 689.505 69.4 695.772 76.2C702.039 83 705.172 92.1333 705.172 103.6V165H684.972V105.6C684.972 90 677.505 82.2 662.572 82.2C656.172 82.2 650.172 83.7333 644.572 86.8C639.105 89.7333 634.372 94.2667 630.372 100.4V165H610.172V69ZM780.294 211C773.76 211 767.36 210.467 761.094 209.4C754.96 208.333 749.76 206.8 745.494 204.8V188.2C755.494 192.733 767.094 195 780.294 195C792.694 195 801.694 192.267 807.294 186.8C813.027 181.467 815.894 173.333 815.894 162.4V152.2C807.094 162.733 794.16 168 777.094 168C767.36 168 758.627 165.867 750.894 161.6C743.16 157.333 737.094 151.333 732.694 143.6C728.294 135.867 726.094 127 726.094 117C726.094 106.867 728.227 98 732.494 90.4C736.894 82.6667 742.894 76.6667 750.494 72.4C758.227 68.1333 766.894 66 776.494 66C785.427 66 792.96 67.3333 799.094 70C805.36 72.5333 811.16 76.8 816.494 82.8V69H836.094V160.2C836.094 176.6 831.494 189.133 822.294 197.8C813.227 206.6 799.227 211 780.294 211ZM781.094 152C789.36 152 796.627 149.8 802.894 145.4C809.294 141 813.627 135.133 815.894 127.8V106.2C813.36 98.7333 808.96 92.8667 802.694 88.6C796.56 84.3333 789.36 82.2 781.094 82.2C774.56 82.2 768.627 83.6667 763.294 86.6C758.094 89.4 753.96 93.4667 750.894 98.8C747.96 104.133 746.494 110.2 746.494 117C746.494 123.933 747.96 130.067 750.894 135.4C753.96 140.6 758.094 144.667 763.294 147.6C768.627 150.533 774.56 152 781.094 152ZM907.647 168C896.847 168 887.314 166 879.047 162C870.914 157.867 864.514 152 859.847 144.4C855.314 136.667 853.047 127.6 853.047 117.2C853.047 106.933 855.314 97.9333 859.847 90.2C864.38 82.4667 870.78 76.5333 879.047 72.4C887.314 68.1333 896.847 66 907.647 66C918.447 66 927.98 68.1333 936.247 72.4C944.514 76.5333 950.914 82.4667 955.447 90.2C960.114 97.9333 962.447 106.933 962.447 117.2C962.447 127.6 960.114 136.667 955.447 144.4C950.914 152 944.514 157.867 936.247 162C927.98 166 918.447 168 907.647 168ZM907.647 152C918.047 152 926.314 148.8 932.447 142.4C938.58 136 941.647 127.6 941.647 117.2C941.647 106.4 938.58 97.8667 932.447 91.6C926.314 85.3333 918.047 82.2 907.647 82.2C897.247 82.2 888.98 85.3333 882.847 91.6C876.714 97.8667 873.647 106.4 873.647 117.2C873.647 127.6 876.714 136 882.847 142.4C888.98 148.8 897.247 152 907.647 152Z" fill="#F1EEBC"/>
<circle cx="572" cy="38" r="15" fill="#07417B"/>
</svg>
